<?xml version="1.0" encoding="UTF-8"?>
<!DOCTYPE svg PUBLIC "-//W3C//DTD SVG 1.1//EN" "http://www.w3.org/Graphics/SVG/1.1/DTD/svg11.dtd">
<svg version="1.1" xmlns="http://www.w3.org/2000/svg" xmlns:xlink="http://www.w3.org/1999/xlink" x="0" y="0" width="310" height="270" viewBox="0, 0, 310, 270">
  <g id="レイヤー_1">
    <g>
      <g>
        <path d="M52.257,246.82 L52.257,250.101 C52.257,250.101 61.007,255.934 74.616,253.99 C74.616,253.99 81.664,253.504 84.824,251.317 L94.302,250.344 L94.787,244.998" fill="#5F5D5D"/>
        <path d="M52.257,246.82 L52.257,250.101 C52.257,250.101 61.007,255.934 74.616,253.99 C74.616,253.99 81.664,253.504 84.824,251.317 L94.302,250.344 L94.787,244.998" fill-opacity="0" stroke="#7A5B33" stroke-width="1.701" stroke-linecap="round" stroke-linejoin="round"/>
      </g>
      <path d="M66.111,225.555 C66.111,225.555 49.341,224.339 52.257,246.82 C52.257,246.82 64.652,253.99 82.88,249.372 C82.88,249.372 89.198,244.026 94.788,244.997 C94.788,244.997 96.49,238.437 95.76,233.089 C95.032,227.743 78.262,224.097 66.111,225.555" fill="#5F5D5D"/>
      <path d="M66.111,225.555 C66.111,225.555 49.341,224.339 52.257,246.82 C52.257,246.82 64.652,253.99 82.88,249.372 C82.88,249.372 89.198,244.026 94.788,244.997 C94.788,244.997 96.49,238.437 95.76,233.089 C95.032,227.743 78.262,224.097 66.111,225.555 z" fill-opacity="0" stroke="#7A5B33" stroke-width="1.701" stroke-linecap="round" stroke-linejoin="round"/>
      <path d="M119.091,225.312 C119.091,225.312 118.118,234.547 118.606,236.735 C119.091,238.922 120.789,245.241 132.457,245.241 C144.365,245.241 144.61,237.464 144.61,219.479 C144.61,219.479 128.57,212.917 119.091,225.312" fill="#5F5D5D"/>
      <path d="M119.091,225.312 C119.091,225.312 118.118,234.547 118.606,236.735 C119.091,238.922 120.789,245.241 132.457,245.241 C144.365,245.241 144.61,237.464 144.61,219.479 C144.61,219.479 128.57,212.917 119.091,225.312 z" fill-opacity="0" stroke="#7A5B33" stroke-width="1.701" stroke-linecap="round" stroke-linejoin="round"/>
      <path d="M133.552,161.881 L136.832,189.586 C139.991,192.26 138.533,194.203 138.533,194.203 C145.823,203.924 148.74,212.674 148.74,212.674 C142.421,230.416 117.633,225.312 117.633,225.312 C117.633,225.312 116.175,218.021 111.072,211.701 C105.967,205.383 102.565,190.558 102.565,190.558 C103.537,208.057 99.892,234.547 99.892,234.547 C98.19,234.305 88.347,238.8 83.973,234.426 C78.818,229.27 65.381,225.069 65.381,225.069 C67.082,224.098 67.082,219.479 67.082,219.479 C65.867,215.591 67.569,215.105 67.811,211.701 C68.054,208.299 69.27,196.391 68.54,191.044 C67.811,185.698 67.203,164.433 67.203,164.433 C67.203,164.433 69.062,155.422 95.448,154.728 C121.833,154.033 133.552,161.881 133.552,161.881" fill="#988C6D"/>
      <path d="M133.552,161.881 L136.832,189.586 C139.991,192.26 138.533,194.203 138.533,194.203 C145.823,203.924 148.74,212.674 148.74,212.674 C142.421,230.416 117.633,225.312 117.633,225.312 C117.633,225.312 116.175,218.021 111.072,211.701 C105.967,205.383 102.565,190.558 102.565,190.558 C103.537,208.057 99.892,234.547 99.892,234.547 C98.19,234.305 88.347,238.8 83.973,234.426 C78.818,229.27 65.381,225.069 65.381,225.069 C67.082,224.098 67.082,219.479 67.082,219.479 C65.867,215.591 67.569,215.105 67.811,211.701 C68.054,208.299 69.27,196.391 68.54,191.044 C67.811,185.698 67.203,164.433 67.203,164.433 C67.203,164.433 69.062,155.422 95.448,154.728 C121.833,154.033 133.552,161.881 133.552,161.881 z" fill-opacity="0" stroke="#7A5B33" stroke-width="1.701" stroke-linecap="round" stroke-linejoin="round"/>
      <path d="M90.899,171.723 C90.899,171.723 95.638,173.547 97.462,176.098 C99.285,178.65 102.93,192.138 102.93,192.138" fill-opacity="0" stroke="#7A5B33" stroke-width="1.701" stroke-linecap="round" stroke-linejoin="round"/>
      <path d="M79.026,74.5 C79.026,74.5 68.819,78.207 67.36,79.18 C65.902,80.151 63.715,87.685 63.472,90.115 C63.229,92.546 56.668,103.725 51.806,105.669 L40.383,95.462 C40.383,95.462 38.925,92.546 30.663,97.649 C22.4,102.753 19.483,115.147 21.671,122.438 C21.671,122.438 44.515,135.319 57.639,136.049 C57.639,136.049 62.985,136.534 65.172,132.889 L63.472,167.885 C63.472,167.885 75.137,172.746 84.616,172.746 L88.017,165.212 L92.879,172.988 C92.879,172.988 120.828,173.719 136.381,165.941 L136.381,152.331 C136.381,152.331 140.755,99.837 130.305,76.992 C130.305,76.992 114.022,69.822 79.026,74.5" fill="#988C6D"/>
      <path d="M79.026,74.5 C79.026,74.5 68.819,78.207 67.36,79.18 C65.902,80.151 63.715,87.685 63.472,90.115 C63.229,92.546 56.668,103.725 51.806,105.669 L40.383,95.462 C40.383,95.462 38.925,92.546 30.663,97.649 C22.4,102.753 19.483,115.147 21.671,122.438 C21.671,122.438 44.515,135.319 57.639,136.049 C57.639,136.049 62.985,136.534 65.172,132.889 L63.472,167.885 C63.472,167.885 75.137,172.746 84.616,172.746 L88.017,165.212 L92.879,172.988 C92.879,172.988 120.828,173.719 136.381,165.941 L136.381,152.331 C136.381,152.331 140.755,99.837 130.305,76.992 C130.305,76.992 114.022,69.822 79.026,74.5 z" fill-opacity="0" stroke="#7A5B33" stroke-width="1.701" stroke-linecap="round" stroke-linejoin="round"/>
      <path d="M86.248,72.27 C86.248,72.27 101.871,79.909 114.022,75.047 C114.022,75.047 104.7,103.673 92.696,109.498 C92.696,109.498 84.165,89.629 86.248,72.27" fill="#FEFEFE"/>
      <path d="M86.248,72.27 C86.248,72.27 101.871,79.909 114.022,75.047 C114.022,75.047 104.7,103.673 92.696,109.498 C92.696,109.498 84.165,89.629 86.248,72.27 z" fill-opacity="0" stroke="#7A5B33" stroke-width="1.701" stroke-linecap="round" stroke-linejoin="round"/>
      <path d="M126.204,40.827 C126.204,40.827 128.589,36.498 128.777,33.299 C128.965,30.098 127.083,18.617 126.707,15.982 C126.33,13.348 119.366,5.818 108.826,3.748 C98.286,1.678 75.7,0.172 69.112,12.595 C69.112,12.595 60.642,16.924 61.207,28.781 C61.771,40.639 66.853,49.297 66.853,49.297" fill="#5F5D5D"/>
      <g>
        <path d="M71.492,86.713 C71.492,86.713 66.633,107.371 64.93,134.59" fill="#DCDDDD"/>
        <path d="M71.492,86.713 C71.492,86.713 66.633,107.371 64.93,134.59" fill-opacity="0" stroke="#7A5B33" stroke-width="1.701" stroke-linecap="round" stroke-linejoin="round"/>
      </g>
      <path d="M84.178,20.211 C84.178,20.211 83.278,33.328 73.376,35.9 L72.605,50.817 L69.775,48.245 C69.775,48.245 60.388,49.274 63.732,59.305 C66.39,67.282 76.462,63.549 76.462,63.549 C76.462,63.549 81.992,70.621 90.737,71.907 C90.737,71.907 96.395,76.407 104.367,75.894 C112.34,75.38 113.626,71.649 113.626,71.649 C113.626,71.649 123.401,65.735 125.072,55.447 C126.742,45.159 125.328,38.601 125.328,38.601 C125.328,38.601 119.799,31.014 119.284,23.813 C119.284,23.813 95.879,27.283 84.178,20.211" fill="#FBE1BA"/>
      <path d="M84.178,20.211 C84.178,20.211 83.278,33.328 73.376,35.9 L72.605,50.817 L69.775,48.245 C69.775,48.245 60.388,49.274 63.732,59.305 C66.39,67.282 76.462,63.549 76.462,63.549 C76.462,63.549 81.992,70.621 90.737,71.907 C90.737,71.907 96.395,76.407 104.367,75.894 C112.34,75.38 113.626,71.649 113.626,71.649 C113.626,71.649 123.401,65.735 125.072,55.447 C126.742,45.159 125.328,38.601 125.328,38.601 C125.328,38.601 119.799,31.014 119.284,23.813 C119.284,23.813 95.879,27.283 84.178,20.211 z" fill-opacity="0" stroke="#7A5B33" stroke-width="1.701" stroke-linecap="round" stroke-linejoin="round"/>
      <path d="M66.947,57.891 C66.947,57.891 67.975,52.746 72.219,56.219" fill-opacity="0" stroke="#7A5B33" stroke-width="1.701" stroke-linecap="round" stroke-linejoin="round"/>
      <path d="M68.104,55.962 C68.104,55.962 68.104,63.162 74.534,60.848" fill-opacity="0" stroke="#7A5B33" stroke-width="1.701" stroke-linecap="round" stroke-linejoin="round"/>
      <path d="M107.968,49.789 C107.968,49.789 110.798,49.502 110.668,53.775 C110.54,58.018 106.039,55.704 105.654,55.447 C105.268,55.189 103.724,54.934 103.081,55.576 C102.439,56.219 101.409,56.347 100.38,55.832" fill-opacity="0" stroke="#7A5B33" stroke-width="1.701" stroke-linecap="round" stroke-linejoin="round"/>
      <path d="M93.565,57.119 C93.565,57.119 89.194,58.276 89.065,65.092" fill-opacity="0" stroke="#7A5B33" stroke-width="1.701" stroke-linecap="round" stroke-linejoin="round"/>
      <g>
        <path d="M111.055,62.188 C111.055,62.188 103.725,65.273 96.781,64.245 C96.781,64.245 97.166,68.746 104.881,68.36 C104.881,68.36 108.868,67.974 109.769,64.888" fill="#F6C1BB"/>
        <path d="M111.055,62.188 C111.055,62.188 103.725,65.273 96.781,64.245 C96.781,64.245 97.166,68.746 104.881,68.36 C104.881,68.36 108.868,67.974 109.769,64.888" fill-opacity="0" stroke="#7A5B33" stroke-width="1.701" stroke-linecap="round" stroke-linejoin="round"/>
      </g>
      <path d="M110.645,33.048 C110.645,33.048 111.537,28.781 116.166,28.781 C116.166,28.781 118.29,30.109 118.675,32.295 C118.675,32.295 115.018,31.247 110.645,33.048" fill="#5F5D5D"/>
      <path d="M110.645,33.048 C110.645,33.048 111.537,28.781 116.166,28.781 C116.166,28.781 118.29,30.109 118.675,32.295 C118.675,32.295 115.018,31.247 110.645,33.048 z" fill-opacity="0" stroke="#5F5D5D" stroke-width="1" stroke-linecap="round" stroke-linejoin="round"/>
      <path d="M95.588,34.052 C95.588,34.052 93.437,29.085 88.164,29.085 C88.164,29.085 84.563,28.826 82.506,32.686 L82.892,35.001 C82.892,35.001 90.443,30.194 95.588,34.052" fill="#5F5D5D"/>
      <path d="M95.588,34.052 C95.588,34.052 93.437,29.085 88.164,29.085 C88.164,29.085 84.563,28.826 82.506,32.686 L82.892,35.001 C82.892,35.001 90.443,30.194 95.588,34.052 z" fill-opacity="0" stroke="#5F5D5D" stroke-width="1" stroke-linecap="round" stroke-linejoin="round"/>
      <path d="M95.747,45.545 C95.747,47.746 95.005,49.531 94.09,49.531 C93.176,49.531 92.434,47.746 92.434,45.545 C92.434,43.344 93.176,41.559 94.09,41.559 C95.005,41.559 95.747,43.344 95.747,45.545" fill="#7A5B33"/>
      <path d="M117.737,45.545 C117.737,47.746 116.994,49.531 116.08,49.531 C115.166,49.531 114.423,47.746 114.423,45.545 C114.423,43.344 115.166,41.559 116.08,41.559 C116.994,41.559 117.737,43.344 117.737,45.545" fill="#7A5B33"/>
      <path d="M102.882,48.687 C102.882,50.535 101.383,52.033 99.535,52.033 L88.366,52.033 C86.519,52.033 85.021,50.535 85.021,48.687 L85.021,43.09 C85.021,41.243 86.519,39.745 88.366,39.745 L99.535,39.745 C101.383,39.745 102.882,41.243 102.882,43.09 L102.882,48.687 z" fill-opacity="0" stroke="#7A5B33" stroke-width="1.701" stroke-linecap="round" stroke-linejoin="round"/>
      <path d="M123.753,48.687 C123.753,50.535 122.605,52.033 121.188,52.033 L112.625,52.033 C111.208,52.033 110.06,50.535 110.06,48.687 L110.06,43.09 C110.06,41.243 111.208,39.745 112.625,39.745 L121.188,39.745 C122.605,39.745 123.753,41.243 123.753,43.09 L123.753,48.687 z" fill-opacity="0" stroke="#7A5B33" stroke-width="1.701" stroke-linecap="round" stroke-linejoin="round"/>
      <path d="M103.209,46.96 C103.209,46.96 107.324,44.902 109.897,47.088" fill-opacity="0" stroke="#7A5B33" stroke-width="1.701" stroke-linecap="round" stroke-linejoin="round"/>
      <path d="M84.822,45.416 L69.904,48.245" fill-opacity="0" stroke="#7A5B33" stroke-width="1.701" stroke-linecap="round" stroke-linejoin="round"/>
      <path d="M97.982,76.324 L91.785,82.703 C91.785,82.703 85.952,76.506 85.041,71.22 z" fill="#FEFEFE"/>
      <path d="M97.982,76.324 L91.785,82.703 C91.785,82.703 85.952,76.506 85.041,71.22 L97.982,76.324 z" fill-opacity="0" stroke="#7A5B33" stroke-width="1.701" stroke-linecap="round" stroke-linejoin="round"/>
      <path d="M98.712,76.505 L105.456,83.614 C105.456,83.614 112.021,80.976 113.751,72.817 C113.751,72.817 112.2,77.964 98.712,76.505" fill="#FEFEFE"/>
      <path d="M98.712,76.505 L105.456,83.614 C105.456,83.614 112.021,80.976 113.751,72.817 C113.751,72.817 112.2,77.964 98.712,76.505 z" fill-opacity="0" stroke="#7A5B33" stroke-width="1.701" stroke-linecap="round" stroke-linejoin="round"/>
      <path d="M93.425,80.697 C93.425,80.697 92.878,84.161 94.154,87.077 C94.154,87.077 98.346,85.619 101.08,87.441 L102.904,81.244 C102.904,81.244 98.711,74.318 93.425,80.697" fill="#5F5D5D"/>
      <path d="M93.425,80.697 C93.425,80.697 92.878,84.161 94.154,87.077 C94.154,87.077 98.346,85.619 101.08,87.441 L102.904,81.244 C102.904,81.244 98.711,74.318 93.425,80.697 z" fill-opacity="0" stroke="#7A5B33" stroke-width="1.701"/>
      <path d="M94.337,87.442 L89.963,99.594 C89.963,99.594 91.178,108.586 92.636,108.829 C94.794,109.189 100.412,102.024 100.412,100.808 C100.412,96.198 100.352,87.989 100.352,87.989 C100.352,87.989 98.529,85.254 94.337,87.442" fill="#5F5D5D"/>
      <path d="M94.337,87.442 L89.963,99.594 C89.963,99.594 91.178,108.586 92.636,108.829 C94.794,109.189 100.412,102.024 100.412,100.808 C100.412,96.198 100.352,87.989 100.352,87.989 C100.352,87.989 98.529,85.254 94.337,87.442 z" fill-opacity="0" stroke="#7A5B33" stroke-width="1.701"/>
      <path d="M85.77,71.948 C85.77,71.948 87.228,100.565 92.696,110.044 C92.696,110.044 80.666,98.925 77.931,89.993 L80.119,86.713 L77.568,83.978 C77.568,83.978 77.931,78.692 79.026,74.5 C79.026,74.5 82.67,73.407 85.77,71.948" fill="#988C6D"/>
      <path d="M85.77,71.948 C85.77,71.948 87.228,100.565 92.696,110.044 C92.696,110.044 80.666,98.925 77.931,89.993 L80.119,86.713 L77.568,83.978 C77.568,83.978 77.931,78.692 79.026,74.5 C79.026,74.5 82.67,73.407 85.77,71.948 z" fill-opacity="0" stroke="#7A5B33" stroke-width="1.701" stroke-linecap="round" stroke-linejoin="round"/>
      <path d="M86.134,79.422 L79.572,87.077" fill-opacity="0" stroke="#7A5B33" stroke-width="1.701" stroke-linecap="round" stroke-linejoin="round"/>
      <path d="M114.933,72.131 C114.933,72.131 108.553,93.821 92.696,109.497 C92.696,109.497 112.564,103.117 119.672,93.276 L116.756,89.812 L124.594,87.624 C124.594,87.624 123.5,79.058 120.584,74.5 C120.584,74.5 119.307,73.042 114.933,72.131" fill="#988C6D"/>
      <path d="M114.933,72.131 C114.933,72.131 108.553,93.821 92.696,109.497 C92.696,109.497 112.564,103.117 119.672,93.276 L116.756,89.812 L124.594,87.624 C124.594,87.624 123.5,79.058 120.584,74.5 C120.584,74.5 119.307,73.042 114.933,72.131 z" fill-opacity="0" stroke="#7A5B33" stroke-width="1.701" stroke-linecap="round" stroke-linejoin="round"/>
      <path d="M111.288,82.521 C111.288,82.521 115.845,88.354 116.757,89.812" fill-opacity="0" stroke="#7A5B33" stroke-width="1.701" stroke-linecap="round" stroke-linejoin="round"/>
      <path d="M94.58,118.429 C94.58,120.107 93.22,121.466 91.542,121.466 C89.863,121.466 88.504,120.107 88.504,118.429 C88.504,116.75 89.863,115.391 91.542,115.391 C93.22,115.391 94.58,116.75 94.58,118.429 z" fill-opacity="0" stroke="#7A5B33" stroke-width="1.701" stroke-linecap="round" stroke-linejoin="round"/>
      <path d="M93.607,149.535 C93.607,151.214 92.248,152.574 90.569,152.574 C88.891,152.574 87.532,151.214 87.532,149.535 C87.532,147.857 88.891,146.498 90.569,146.498 C92.248,146.498 93.607,147.857 93.607,149.535 z" fill-opacity="0" stroke="#7A5B33" stroke-width="1.701" stroke-linecap="round" stroke-linejoin="round"/>
      <path d="M93.607,133.74 C93.607,135.419 92.248,136.778 90.569,136.778 C88.891,136.778 87.532,135.419 87.532,133.74 C87.532,132.061 88.891,130.702 90.569,130.702 C92.248,130.702 93.607,132.061 93.607,133.74 z" fill-opacity="0" stroke="#7A5B33" stroke-width="1.701" stroke-linecap="round" stroke-linejoin="round"/>
      <g>
        <path d="M14.691,109.835 C14.691,109.835 4.97,111.779 3.998,108.863 C3.026,105.947 14.935,103.273 14.935,103.273 L13.476,103.517 C7.157,104.731 2.783,102.544 2.783,102.544 C1.811,95.982 16.636,96.227 17.85,95.982 C19.066,95.738 20.524,93.552 20.524,93.552 C12.746,93.066 8.129,89.42 10.802,87.477 C13.477,85.533 28.788,88.935 28.788,88.935 C28.788,88.935 30.002,84.802 33.648,83.588 C37.293,82.373 39.723,82.858 38.994,85.775 C38.545,87.57 36.078,92.337 35.592,94.281 C35.106,96.227 36.568,103.019 28.788,110.564 C20.767,118.342 7.643,115.912 7.643,115.912 C7.643,115.912 6.672,114.21 7.887,112.508 C9.101,110.808 11.775,111.536 14.205,110.564 C15.996,109.849 17.036,109.513 18.823,108.62" fill="#FBE1BA"/>
        <path d="M14.691,109.835 C14.691,109.835 4.97,111.779 3.998,108.863 C3.026,105.947 14.935,103.273 14.935,103.273 L13.476,103.517 C7.157,104.731 2.783,102.544 2.783,102.544 C1.811,95.982 16.636,96.227 17.85,95.982 C19.066,95.738 20.524,93.552 20.524,93.552 C12.746,93.066 8.129,89.42 10.802,87.477 C13.477,85.533 28.788,88.935 28.788,88.935 C28.788,88.935 30.002,84.802 33.648,83.588 C37.293,82.373 39.723,82.858 38.994,85.775 C38.545,87.57 36.078,92.337 35.592,94.281 C35.106,96.227 36.568,103.019 28.788,110.564 C20.767,118.342 7.643,115.912 7.643,115.912 C7.643,115.912 6.672,114.21 7.887,112.508 C9.101,110.808 11.775,111.536 14.205,110.564 C15.996,109.849 17.036,109.513 18.823,108.62" fill-opacity="0" stroke="#7A5B33" stroke-width="1.701" stroke-linecap="round" stroke-linejoin="round"/>
      </g>
      <path d="M28.788,91.852 C28.788,91.852 24.656,95.74 25.871,102.544" fill-opacity="0" stroke="#7A5B33" stroke-width="1.701" stroke-linecap="round" stroke-linejoin="round"/>
      <path d="M36.634,97.303 C36.634,97.303 34.203,107.751 22.538,116.016 L27.398,118.689 C27.398,118.689 37.849,114.072 39.793,100.219 z" fill="#FEFEFE"/>
      <path d="M36.634,97.303 C36.634,97.303 34.203,107.751 22.538,116.016 L27.398,118.689 C27.398,118.689 37.849,114.072 39.793,100.219 L36.634,97.303 z" fill-opacity="0" stroke="#7A5B33" stroke-width="1.701" stroke-linecap="round" stroke-linejoin="round"/>
      <path d="M40.14,96.92 C40.14,96.92 41.356,114.176 24.829,120.008" fill-opacity="0" stroke="#7A5B33" stroke-width="1.701" stroke-linecap="round" stroke-linejoin="round"/>
      <g>
        <path d="M147.405,116.529 L102.37,116.529 L102.37,120.34 L147.405,120.34 z" fill="#FEFEFE"/>
        <path d="M147.405,116.529 L102.37,116.529 L102.37,120.34 L147.405,120.34 z" fill-opacity="0" stroke="#7A5B33" stroke-width="1.701" stroke-linecap="round" stroke-linejoin="round"/>
      </g>
      <g>
        <path d="M102.37,148.054 L147.405,148.054 L147.405,120.34 L102.37,120.34 z" fill="#7A5B33"/>
        <path d="M102.37,148.054 L147.405,148.054 L147.405,120.34 L102.37,120.34 z" fill-opacity="0" stroke="#7A5B33" stroke-width="1.701" stroke-linecap="round" stroke-linejoin="round"/>
      </g>
      <path d="M116.998,142.984 L110.605,142.984 L110.605,124.717 L116.998,124.717 z" fill="#FEFEFE"/>
      <path d="M73.038,17.668 C73.038,17.668 68.018,20.895 67.302,32.725" fill-opacity="0" stroke="#7A5B33" stroke-width="1.701" stroke-linecap="round" stroke-linejoin="round"/>
      <path d="M73.754,21.612 C73.754,21.612 69.811,27.706 69.811,35.593" fill-opacity="0" stroke="#7A5B33" stroke-width="1.701" stroke-linecap="round" stroke-linejoin="round"/>
      <path d="M113.694,138.391 C113.694,138.391 108.672,136.659 104.687,139.604 C100.703,142.548 102.782,146.186 102.782,146.186 C102.782,146.186 97.065,151.902 104.34,155.02 C104.34,155.02 105.034,158.312 108.671,159.004 C108.671,159.004 111.442,162.295 115.081,161.43 C118.718,160.563 122.875,157.964 125.127,150.169 C127.38,142.375 119.237,137.178 113.694,138.391" fill="#FBE1BA"/>
      <path d="M113.694,138.391 C113.694,138.391 108.672,136.659 104.687,139.604 C100.703,142.548 102.782,146.186 102.782,146.186 C102.782,146.186 97.065,151.902 104.34,155.02 C104.34,155.02 105.034,158.312 108.671,159.004 C108.671,159.004 111.442,162.295 115.081,161.43 C118.718,160.563 122.875,157.964 125.127,150.169 C127.38,142.375 119.237,137.178 113.694,138.391 z" fill-opacity="0" stroke="#7A5B33" stroke-width="1.701" stroke-linecap="round" stroke-linejoin="round"/>
      <g>
        <path d="M106.592,143.415 C106.592,143.415 103.128,146.013 102.088,147.052" fill="#FEFEFE"/>
        <path d="M106.592,143.415 C106.592,143.415 103.128,146.013 102.088,147.052" fill-opacity="0" stroke="#7A5B33" stroke-width="1.701" stroke-linecap="round" stroke-linejoin="round"/>
      </g>
      <g>
        <path d="M129.334,76.748 C129.334,76.748 140.999,80.151 144.645,88.171 C148.29,96.19 155.339,133.132 155.339,135.561 C155.339,137.992 155.824,149.416 125.445,158.65 C125.445,158.65 130.549,145.283 118.64,135.319 C118.64,135.319 124.716,133.618 125.931,132.402 C127.146,131.187 127.875,127.3 127.875,127.3 C127.875,127.3 123.015,96.434 129.334,86.713" fill="#988C6D"/>
        <path d="M129.334,76.748 C129.334,76.748 140.999,80.151 144.645,88.171 C148.29,96.19 155.339,133.132 155.339,135.561 C155.339,137.992 155.824,149.416 125.445,158.65 C125.445,158.65 130.549,145.283 118.64,135.319 C118.64,135.319 124.716,133.618 125.931,132.402 C127.146,131.187 127.875,127.3 127.875,127.3 C127.875,127.3 123.015,96.434 129.334,86.713" fill-opacity="0" stroke="#7A5B33" stroke-width="1.701" stroke-linecap="round" stroke-linejoin="round"/>
      </g>
      <path d="M120.585,136.778 L116.696,137.75 C116.696,137.75 126.659,145.285 122.772,157.193 L125.931,155.734 C125.931,155.734 129.819,147.228 120.585,136.778" fill="#FEFEFE"/>
      <path d="M120.585,136.778 L116.696,137.75 C116.696,137.75 126.659,145.285 122.772,157.193 L125.931,155.734 C125.931,155.734 129.819,147.228 120.585,136.778 z" fill-opacity="0" stroke="#7A5B33" stroke-width="1.701" stroke-linecap="round" stroke-linejoin="round"/>
      <path d="M180.838,112.246 L175.721,114.734 C175.721,114.734 169.56,119.44 168.394,123.719 C167.227,127.997 177.143,164.942 177.143,164.942 C177.143,164.942 190.561,172.138 210.395,166.499 C210.395,166.499 226.534,134.804 225.756,127.414 C224.978,120.024 213.895,112.246 213.895,112.246 C213.895,112.246 191.921,107.774 180.838,112.246" fill="#807068"/>
      <path d="M180.838,112.246 L175.721,114.734 C175.721,114.734 169.56,119.44 168.394,123.719 C167.227,127.997 177.143,164.942 177.143,164.942 C177.143,164.942 190.561,172.138 210.395,166.499 C210.395,166.499 226.534,134.804 225.756,127.414 C224.978,120.024 213.895,112.246 213.895,112.246 C213.895,112.246 191.921,107.774 180.838,112.246 z" fill-opacity="0" stroke="#7A5B33" stroke-width="1.701" stroke-linecap="round" stroke-linejoin="round"/>
      <path d="M187.924,115.738 L208,117.495 C208,117.495 201.476,134.811 193.946,138.073 C193.946,138.073 191.688,135.563 187.924,115.738" fill="#FEFEFE"/>
      <path d="M187.924,115.738 L208,117.495 C208,117.495 201.476,134.811 193.946,138.073 C193.946,138.073 191.688,135.563 187.924,115.738 z" fill-opacity="0" stroke="#7A5B33" stroke-width="1.701" stroke-linecap="round" stroke-linejoin="round"/>
      <path d="M188.421,106.413 C177.337,106.803 174.811,95.913 174.811,95.913 C174.033,100.969 176.754,104.663 176.754,104.663 C170.531,103.303 168.977,92.802 168.977,92.802 C166.838,95.523 167.421,99.802 167.421,99.802 C163.531,94.552 167.031,85.996 168.782,84.44 C170.532,82.885 171.893,78.412 171.893,78.412 C171.893,78.412 169.372,69.665 175.587,57.411 C182.394,43.994 195.033,44.967 195.033,44.967 C195.033,44.967 224.784,37.967 232.951,66.162 C232.951,66.162 234.701,76.857 233.146,84.44 C231.59,92.023 232.951,96.107 233.534,97.273 C234.117,98.44 235.868,105.441 227.117,107.191 C227.117,107.191 224.784,112.053 215.062,110.886" fill="#81615A"/>
      <path d="M195.033,108.552 L194.644,111.469 L197.173,114.969 C197.173,114.969 206.894,110.497 208.84,107.969 L208.451,103.886 C208.451,103.886 204.172,104.274 195.033,108.552" fill="#FBE1BA"/>
      <path d="M195.033,108.552 L194.644,111.469 L197.173,114.969 C197.173,114.969 206.894,110.497 208.84,107.969 L208.451,103.886 C208.451,103.886 204.172,104.274 195.033,108.552 z" fill-opacity="0" stroke="#7A5B33" stroke-width="1.701" stroke-linecap="round" stroke-linejoin="round"/>
      <path d="M196.784,57.411 C196.784,57.411 190.368,67.134 180.45,70.828 C180.45,70.828 175.201,87.94 178.894,95.33 C181.811,101.164 185.117,102.524 186.673,104.469 C188.228,106.413 191.728,109.524 196.395,108.552 C201.061,107.58 207.284,106.607 212.534,101.746 C212.534,101.746 221.284,103.691 224.395,98.246 C227.508,92.802 224.202,89.885 220.701,90.273 L217.007,93.19 C217.007,93.19 216.812,85.802 216.618,81.718 C216.423,77.635 210.59,72.385 207.673,70.245 C204.757,68.106 197.173,59.745 196.784,57.411" fill="#FBE1BA"/>
      <path d="M196.784,57.411 C196.784,57.411 190.368,67.134 180.45,70.828 C180.45,70.828 175.201,87.94 178.894,95.33 C181.811,101.164 185.117,102.524 186.673,104.469 C188.228,106.413 191.728,109.524 196.395,108.552 C201.061,107.58 207.284,106.607 212.534,101.746 C212.534,101.746 221.284,103.691 224.395,98.246 C227.508,92.802 224.202,89.885 220.701,90.273 L217.007,93.19 C217.007,93.19 216.812,85.802 216.618,81.718 C216.423,77.635 210.59,72.385 207.673,70.245 C204.757,68.106 197.173,59.745 196.784,57.411 z" fill-opacity="0" stroke="#7A5B33" stroke-width="1.701" stroke-linecap="round" stroke-linejoin="round"/>
      <path d="M189.931,260.265 C187.684,263.475 183.797,264.118 181.285,264.165 C182.884,264.906 185.187,265.15 188.419,264.481 C188.419,264.481 192.194,263.03 195.225,258.259 C197.459,254.744 200.973,251.733 200.973,251.733 C200.973,251.733 200.86,250.629 200.426,249.243 C197.489,251.584 192.746,256.244 189.931,260.265" fill="#5F5D5D"/>
      <path d="M189.931,260.265 C187.684,263.475 183.797,264.118 181.285,264.165 C182.884,264.906 185.187,265.15 188.419,264.481 C188.419,264.481 192.194,263.03 195.225,258.259 C197.459,254.744 200.973,251.733 200.973,251.733 C200.973,251.733 200.86,250.629 200.426,249.243 C197.489,251.584 192.746,256.244 189.931,260.265 z" fill-opacity="0" stroke="#7A5B33" stroke-width="1.701" stroke-linecap="round" stroke-linejoin="round"/>
      <path d="M189.931,260.265 C192.746,256.244 197.489,251.584 200.426,249.243 C200.144,248.34 199.728,247.318 199.114,246.398 C198.611,245.643 198.092,244.982 197.614,244.415 C194.732,248.771 188.549,253.137 187.422,252.235 C186.497,251.494 183.807,250.757 182.451,250.418 C181.27,252.54 179.975,254.664 179.086,255.731 C177.699,257.396 177.304,262.323 181.285,264.165 C183.797,264.118 187.684,263.475 189.931,260.265" fill="#5F5D5D"/>
      <path d="M189.931,260.265 C192.746,256.244 197.489,251.584 200.426,249.243 C200.144,248.34 199.728,247.318 199.114,246.398 C198.611,245.643 198.092,244.982 197.614,244.415 C194.732,248.771 188.549,253.137 187.422,252.235 C186.497,251.494 183.807,250.757 182.451,250.418 C181.27,252.54 179.975,254.664 179.086,255.731 C177.699,257.396 177.304,262.323 181.285,264.165 C183.797,264.118 187.684,263.475 189.931,260.265 z" fill-opacity="0" stroke="#7A5B33" stroke-width="1.701" stroke-linecap="round" stroke-linejoin="round"/>
      <g>
        <path d="M180.898,253.992 L185.415,256 C185.415,256 187.924,253.741 188.928,252.236" fill="#5F5D5D"/>
        <path d="M180.898,253.992 L185.415,256 C185.415,256 187.924,253.741 188.928,252.236" fill-opacity="0" stroke="#7A5B33" stroke-width="1.701" stroke-linecap="round" stroke-linejoin="round"/>
      </g>
      <path d="M195.808,242.508 C195.808,242.508 195.007,235.763 192.63,229.588 C187.635,234.541 183.14,234.746 180.523,234.236 C180.826,234.595 181.126,234.954 181.419,235.314 C184.919,239.592 185.697,243.285 185.308,244.647 C185.097,245.386 183.854,247.901 182.451,250.418 C183.807,250.757 186.497,251.494 187.422,252.235 C188.549,253.137 194.732,248.771 197.614,244.415 C196.615,243.233 195.808,242.508 195.808,242.508" fill="#FEFEFE"/>
      <path d="M195.808,242.508 C195.808,242.508 195.007,235.763 192.63,229.588 C187.635,234.541 183.14,234.746 180.523,234.236 C180.826,234.595 181.126,234.954 181.419,235.314 C184.919,239.592 185.697,243.285 185.308,244.647 C185.097,245.386 183.854,247.901 182.451,250.418 C183.807,250.757 186.497,251.494 187.422,252.235 C188.549,253.137 194.732,248.771 197.614,244.415 C196.615,243.233 195.808,242.508 195.808,242.508 z" fill-opacity="0" stroke="#7A5B33" stroke-width="1.701" stroke-linecap="round" stroke-linejoin="round"/>
      <path d="M192.63,229.588 C191.488,226.623 189.986,223.788 188.03,221.897 C186.13,220.058 188.613,205.367 188.613,204.59 C188.613,203.812 179.475,190.978 171.891,203.812 C171.891,203.812 171.696,217.035 172.668,221.897 C173.559,226.35 177.223,230.313 180.523,234.235 C183.14,234.746 187.635,234.541 192.63,229.588" fill="#FBE1BA"/>
      <path d="M192.63,229.588 C191.488,226.623 189.986,223.788 188.03,221.897 C186.13,220.058 188.613,205.367 188.613,204.59 C188.613,203.812 179.475,190.978 171.891,203.812 C171.891,203.812 171.696,217.035 172.668,221.897 C173.559,226.35 177.223,230.313 180.523,234.235 C183.14,234.746 187.635,234.541 192.63,229.588 z" fill-opacity="0" stroke="#7A5B33" stroke-width="1.701" stroke-linecap="round" stroke-linejoin="round"/>
      <path d="M177.227,262.3 C178.191,265.307 181.617,267.708 192.19,266.287 C192.19,266.287 196.456,264.908 198.714,263.026 C200.973,261.143 205.992,261.143 205.992,261.143 C205.992,261.143 206.117,259.89 206.145,258.047 C200.51,258.638 194.488,262.489 189.429,264.029 C185.6,265.195 180.337,263.543 177.227,262.3" fill="#5F5D5D"/>
      <path d="M177.227,262.3 C178.191,265.307 181.617,267.708 192.19,266.287 C192.19,266.287 196.456,264.908 198.714,263.026 C200.973,261.143 205.992,261.143 205.992,261.143 C205.992,261.143 206.117,259.89 206.145,258.047 C200.51,258.638 194.488,262.489 189.429,264.029 C185.6,265.195 180.337,263.543 177.227,262.3 z" fill-opacity="0" stroke="#7A5B33" stroke-width="1.701" stroke-linecap="round" stroke-linejoin="round"/>
      <path d="M205.632,250.905 C200.994,253.52 192.943,255.748 192.943,255.748 C192.015,252.424 188.707,250.721 186.303,249.902 C182.632,251.796 177.461,254.292 177.132,257.003 C176.946,258.54 176.658,260.525 177.227,262.301 C180.337,263.544 185.6,265.195 189.429,264.029 C194.487,262.49 200.51,258.638 206.145,258.048 C206.175,256.082 206.095,253.443 205.632,250.905" fill="#5F5D5D"/>
      <path d="M205.632,250.905 C200.994,253.52 192.943,255.748 192.943,255.748 C192.015,252.424 188.707,250.721 186.303,249.902 C182.632,251.796 177.461,254.292 177.132,257.003 C176.946,258.54 176.658,260.525 177.227,262.301 C180.337,263.544 185.6,265.195 189.429,264.029 C194.487,262.49 200.51,258.638 206.145,258.048 C206.175,256.082 206.095,253.443 205.632,250.905 z" fill-opacity="0" stroke="#7A5B33" stroke-width="1.701" stroke-linecap="round" stroke-linejoin="round"/>
      <g>
        <path d="M182.403,252.736 C182.403,252.736 186.92,256.251 187.422,258.257 L193.696,256" fill="#5F5D5D"/>
        <path d="M182.403,252.736 C182.403,252.736 186.92,256.251 187.422,258.257 L193.696,256" fill-opacity="0" stroke="#7A5B33" stroke-width="1.701" stroke-linecap="round" stroke-linejoin="round"/>
      </g>
      <path d="M205.263,233.984 C205.646,229.461 204.929,223.707 203.734,221.116 C203.734,221.116 204.486,204.553 204.737,201.04 C204.989,197.526 197.711,194.012 189.178,202.295 C189.178,202.295 190.433,221.367 191.437,224.379 C191.866,225.665 191.744,229.745 191.426,234.133 C194.156,234.62 200.042,235.365 205.263,233.984" fill="#FBE1BA"/>
      <path d="M205.263,233.984 C205.646,229.461 204.929,223.707 203.734,221.116 C203.734,221.116 204.486,204.553 204.737,201.04 C204.989,197.526 197.711,194.012 189.178,202.295 C189.178,202.295 190.433,221.367 191.437,224.379 C191.866,225.665 191.744,229.745 191.426,234.133 C194.156,234.62 200.042,235.365 205.263,233.984 z" fill-opacity="0" stroke="#7A5B33" stroke-width="1.701" stroke-linecap="round" stroke-linejoin="round"/>
      <path d="M204.737,237.177 C204.995,236.248 205.164,235.155 205.263,233.984 C200.043,235.364 194.156,234.619 191.426,234.133 C191,240.018 190.218,246.459 189.931,247.466 C189.758,248.073 188.239,248.904 186.303,249.902 C188.708,250.721 192.015,252.423 192.943,255.747 C192.943,255.747 200.995,253.52 205.633,250.905 C205.305,249.111 204.79,247.368 203.984,245.96 C203.984,245.96 203.483,241.695 204.737,237.177" fill="#FEFEFE"/>
      <path d="M204.737,237.177 C204.995,236.248 205.164,235.155 205.263,233.984 C200.043,235.364 194.156,234.619 191.426,234.133 C191,240.018 190.218,246.459 189.931,247.466 C189.758,248.073 188.239,248.904 186.303,249.902 C188.708,250.721 192.015,252.423 192.943,255.747 C192.943,255.747 200.995,253.52 205.633,250.905 C205.305,249.111 204.79,247.368 203.984,245.96 C203.984,245.96 203.483,241.695 204.737,237.177 z" fill-opacity="0" stroke="#7A5B33" stroke-width="1.701" stroke-linecap="round" stroke-linejoin="round"/>
      <path d="M186.14,80.429 C185.822,82.39 184.958,83.881 184.215,83.761 C183.471,83.639 183.126,81.95 183.446,79.99 C183.765,78.029 184.627,76.537 185.37,76.659 C186.115,76.78 186.459,78.468 186.14,80.429" fill="#7A5B33"/>
      <path d="M203.641,83.929 C203.322,85.89 202.458,87.382 201.715,87.261 C200.972,87.14 200.627,85.451 200.946,83.491 C201.265,81.53 202.127,80.038 202.871,80.159 C203.615,80.281 203.959,81.968 203.641,83.929" fill="#7A5B33"/>
      <path d="M188.079,87.896 C188.079,87.896 186.329,88.868 187.301,91.006" fill-opacity="0" stroke="#7A5B33" stroke-width="1.701" stroke-linecap="round" stroke-linejoin="round"/>
      <path d="M192.7,71.024 C192.7,71.024 189.006,66.551 183.367,71.801" fill-opacity="0" stroke="#7A5B33" stroke-width="1.701" stroke-linecap="round" stroke-linejoin="round"/>
      <path d="M200.478,71.607 C200.478,71.607 205.145,67.524 212.534,74.134" fill-opacity="0" stroke="#7A5B33" stroke-width="1.701" stroke-linecap="round" stroke-linejoin="round"/>
      <path d="M188.347,95.479 L195.737,95.868 C195.737,95.868 198.654,102.674 193.792,103.647 C188.931,104.619 188.347,95.479 188.347,95.479" fill="#F6C1BB"/>
      <path d="M188.347,95.479 L195.737,95.868 C195.737,95.868 198.654,102.674 193.792,103.647 C188.931,104.619 188.347,95.479 188.347,95.479 z" fill-opacity="0" stroke="#7A5B33" stroke-width="1.701" stroke-linecap="round" stroke-linejoin="round"/>
      <path d="M203.409,92.203 L204.586,94.263 L207.822,92.497 L209.587,95.145" fill-opacity="0" stroke="#F3A57C" stroke-width="1.701" stroke-linecap="round" stroke-linejoin="round"/>
      <path d="M223.035,94.942 C223.035,94.942 220.701,92.414 217.007,98.247" fill-opacity="0" stroke="#7A5B33" stroke-width="1.701" stroke-linecap="round" stroke-linejoin="round"/>
      <path d="M213.506,57.217 C213.506,57.217 230.618,71.219 219.729,90.858" fill-opacity="0" stroke="#7A5B33" stroke-width="1.701" stroke-linecap="round" stroke-linejoin="round"/>
      <path d="M226.923,100.969 C226.923,100.969 228.479,107.581 225.173,109.136" fill-opacity="0" stroke="#7A5B33" stroke-width="1.701" stroke-linecap="round" stroke-linejoin="round"/>
      <path d="M193.672,108.942 L197.172,114.969 L191.727,119.053 C191.727,119.053 190.171,112.637 191.338,108.359 z" fill="#FEFEFE"/>
      <path d="M193.672,108.942 L197.172,114.969 L191.727,119.053 C191.727,119.053 190.171,112.637 191.338,108.359 L193.672,108.942 z" fill-opacity="0" stroke="#7A5B33" stroke-width="1.701" stroke-linecap="round" stroke-linejoin="round"/>
      <path d="M197.172,114.969 L203.2,122.359 C203.2,122.359 208.646,117.304 211.367,108.747 L208.839,106.996 C208.839,106.996 201.062,114.192 197.172,114.969" fill="#FEFEFE"/>
      <path d="M197.172,114.969 L203.2,122.359 C203.2,122.359 208.646,117.304 211.367,108.747 L208.839,106.996 C208.839,106.996 201.062,114.192 197.172,114.969 z" fill-opacity="0" stroke="#7A5B33" stroke-width="1.701" stroke-linecap="round" stroke-linejoin="round"/>
      <path d="M197.204,116.048 C197.204,116.048 192.343,129.27 192.537,135.298 L195.26,135.298 C195.26,135.298 195.455,119.354 197.204,116.048" fill="#ED763B"/>
      <path d="M197.204,116.048 C197.204,116.048 192.343,129.27 192.537,135.298 L195.26,135.298 C195.26,135.298 195.455,119.354 197.204,116.048 z" fill-opacity="0" stroke="#7A5B33" stroke-width="1.701" stroke-linecap="round" stroke-linejoin="round"/>
      <path d="M197.204,116.048 C197.204,116.048 195.648,131.992 195.26,135.298 L198.565,135.298 C198.565,135.298 198.177,120.131 197.204,116.048" fill="#ED763B"/>
      <path d="M197.204,116.048 C197.204,116.048 195.648,131.992 195.26,135.298 L198.565,135.298 C198.565,135.298 198.177,120.131 197.204,116.048 z" fill-opacity="0" stroke="#7A5B33" stroke-width="1.701" stroke-linecap="round" stroke-linejoin="round"/>
      <path d="M197.982,114.104 C197.982,114.104 191.953,120.52 190.981,124.215 L194.482,125.381 C194.482,125.381 196.038,115.853 197.982,114.104" fill="#ED763B"/>
      <path d="M197.982,114.104 C197.982,114.104 191.953,120.52 190.981,124.215 L194.482,125.381 C194.482,125.381 196.038,115.853 197.982,114.104 z" fill-opacity="0" stroke="#7A5B33" stroke-width="1.701" stroke-linecap="round" stroke-linejoin="round"/>
      <path d="M197.398,114.297 C197.398,114.297 198.955,123.242 198.371,125.965 L201.871,125.575 C201.871,125.575 200.704,116.63 197.398,114.297" fill="#ED763B"/>
      <path d="M197.398,114.297 C197.398,114.297 198.955,123.242 198.371,125.965 L201.871,125.575 C201.871,125.575 200.704,116.63 197.398,114.297 z" fill-opacity="0" stroke="#7A5B33" stroke-width="1.701" stroke-linecap="round" stroke-linejoin="round"/>
      <path d="M176.804,166.208 C176.804,166.208 164.082,181.987 156.108,202.22 C156.108,202.22 165.602,216.181 192.565,216.383 C219.528,216.586 229.177,201.305 229.177,201.305 C229.177,201.305 219.551,177.562 212.147,167.244 C212.147,167.244 188.007,173.491 176.804,166.208" fill="#807068"/>
      <path d="M176.804,166.208 C176.804,166.208 164.082,181.987 156.108,202.22 C156.108,202.22 165.602,216.181 192.565,216.383 C219.528,216.586 229.177,201.305 229.177,201.305 C229.177,201.305 219.551,177.562 212.147,167.244 C212.147,167.244 188.007,173.491 176.804,166.208 z" fill-opacity="0" stroke="#7A5B33" stroke-width="1.701" stroke-linecap="round" stroke-linejoin="round"/>
      <g>
        <path d="M183.641,169.039 C183.641,169.039 170.159,192.711 166.931,205.458" fill="#5F5D5D"/>
        <path d="M183.641,169.039 C183.641,169.039 170.159,192.711 166.931,205.458" fill-opacity="0" stroke="#7A5B33" stroke-width="1.701" stroke-linecap="round" stroke-linejoin="round"/>
      </g>
      <g>
        <path d="M192.945,170.659 L189.528,212.136" fill="#5F5D5D"/>
        <path d="M192.945,170.659 L189.528,212.136" fill-opacity="0" stroke="#7A5B33" stroke-width="1.701" stroke-linecap="round" stroke-linejoin="round"/>
      </g>
      <g>
        <path d="M204.528,169.849 C204.528,169.849 213.262,197.568 215.351,206.267" fill="#5F5D5D"/>
        <path d="M204.528,169.849 C204.528,169.849 213.262,197.568 215.351,206.267" fill-opacity="0" stroke="#7A5B33" stroke-width="1.701" stroke-linecap="round" stroke-linejoin="round"/>
      </g>
      <path d="M190.755,107.775 C190.755,107.775 189.006,128.387 193.672,137.916 C193.672,137.916 183.366,127.415 181.616,122.553 L184.144,119.637 L181.616,118.275 L180.644,111.664 C180.644,111.664 185.311,110.109 186.478,108.748 C187.645,107.386 190.171,108.164 190.755,107.775" fill="#807068"/>
      <path d="M190.755,107.775 C190.755,107.775 189.006,128.387 193.672,137.916 C193.672,137.916 183.366,127.415 181.616,122.553 L184.144,119.637 L181.616,118.275 L180.644,111.664 C180.644,111.664 185.311,110.109 186.478,108.748 C187.645,107.386 190.171,108.164 190.755,107.775 z" fill-opacity="0" stroke="#7A5B33" stroke-width="1.701" stroke-linecap="round" stroke-linejoin="round"/>
      <path d="M211.562,107.775 C211.562,107.775 203.085,131.267 193.947,138.073 C193.947,138.073 204.237,135.062 212.923,125.665 L211.756,121.776 L215.451,120.998 L218.368,114.386 C218.368,114.386 216.034,112.247 215.062,110.498 C214.09,108.748 212.729,107.581 211.562,107.775" fill="#807068"/>
      <path d="M211.562,107.775 C211.562,107.775 203.085,131.267 193.947,138.073 C193.947,138.073 204.237,135.062 212.923,125.665 L211.756,121.776 L215.451,120.998 L218.368,114.386 C218.368,114.386 216.034,112.247 215.062,110.498 C214.09,108.748 212.729,107.581 211.562,107.775 z" fill-opacity="0" stroke="#7A5B33" stroke-width="1.701" stroke-linecap="round" stroke-linejoin="round"/>
      <path d="M195.704,145.35 C195.704,146.598 194.693,147.609 193.445,147.609 C192.197,147.609 191.186,146.598 191.186,145.35 C191.186,144.103 192.197,143.092 193.445,143.092 C194.693,143.092 195.704,144.103 195.704,145.35" fill="#98713E"/>
      <path d="M195.704,145.35 C195.704,146.598 194.693,147.609 193.445,147.609 C192.197,147.609 191.186,146.598 191.186,145.35 C191.186,144.103 192.197,143.092 193.445,143.092 C194.693,143.092 195.704,144.103 195.704,145.35 z" fill-opacity="0" stroke="#7A5B33" stroke-width="1.701" stroke-linecap="round" stroke-linejoin="round"/>
      <path d="M195.704,153.883 C195.704,155.131 194.693,156.142 193.445,156.142 C192.197,156.142 191.186,155.131 191.186,153.883 C191.186,152.635 192.197,151.624 193.445,151.624 C194.693,151.624 195.704,152.635 195.704,153.883" fill="#98713E"/>
      <path d="M195.704,153.883 C195.704,155.131 194.693,156.142 193.445,156.142 C192.197,156.142 191.186,155.131 191.186,153.883 C191.186,152.635 192.197,151.624 193.445,151.624 C194.693,151.624 195.704,152.635 195.704,153.883 z" fill-opacity="0" stroke="#7A5B33" stroke-width="1.701" stroke-linecap="round" stroke-linejoin="round"/>
      <path d="M174.592,176.349 C171.141,178.814 171.704,186.5 171.852,188.016 L175.675,187.644 C175.606,186.921 175.571,186.154 175.571,185.389 C175.571,182.751 175.985,180.152 176.791,179.511 C178.799,178.625 191.694,179.268 202.684,180.382 C202.906,180.62 203.717,181.747 203.717,185.512 C203.717,186.444 203.667,187.536 203.546,188.816 L207.371,189.176 C207.892,183.654 207.31,179.868 205.643,177.923 C204.635,176.747 203.548,176.596 203.239,176.578 C193.829,175.613 177.474,174.29 174.592,176.349" fill="#5F5D5D"/>
      <path d="M174.592,176.349 C171.141,178.814 171.704,186.5 171.852,188.016 L175.675,187.644 C175.606,186.921 175.571,186.154 175.571,185.389 C175.571,182.751 175.985,180.152 176.791,179.511 C178.799,178.625 191.694,179.268 202.684,180.382 C202.906,180.62 203.717,181.747 203.717,185.512 C203.717,186.444 203.667,187.536 203.546,188.816 L207.371,189.176 C207.892,183.654 207.31,179.868 205.643,177.923 C204.635,176.747 203.548,176.596 203.239,176.578 C193.829,175.613 177.474,174.29 174.592,176.349 z" fill-opacity="0" stroke="#7A5B33" stroke-width="1.701" stroke-linecap="round" stroke-linejoin="round"/>
      <path d="M166.959,187.634 L210.516,188.801 L212.267,217.775 L208.571,221.663 L165.598,220.885 C165.403,220.885 166.959,187.634 166.959,187.634" fill="#5F5D5D"/>
      <path d="M166.959,187.634 L210.516,188.801 L212.267,217.775 L208.571,221.663 L165.598,220.885 C165.403,220.885 166.959,187.634 166.959,187.634 z" fill-opacity="0" stroke="#7A5B33" stroke-width="1.701" stroke-linecap="round" stroke-linejoin="round"/>
      <path d="M167.347,205.329 C167.347,205.329 189.515,212.912 208.765,205.135" fill-opacity="0" stroke="#7A5B33" stroke-width="1.701" stroke-linecap="round" stroke-linejoin="round"/>
      <g>
        <path d="M209.544,188.607 L208.766,220.302" fill="#A0A1A1"/>
        <path d="M209.544,188.607 L208.766,220.302" fill-opacity="0" stroke="#7A5B33" stroke-width="1.701" stroke-linecap="round" stroke-linejoin="round"/>
      </g>
      <g>
        <path d="M186.209,210.385 L182.903,210.385 L182.903,205.135 L186.209,205.135 z" fill="#A0A1A1"/>
        <path d="M186.209,210.385 L182.903,210.385 L182.903,205.135 L186.209,205.135 z" fill-opacity="0" stroke="#7A5B33" stroke-width="1.701" stroke-linecap="round" stroke-linejoin="round"/>
      </g>
      <path d="M193.283,173.11 C193.283,173.11 191.533,174.277 190.95,174.666 C190.367,175.055 186.673,180.305 187.839,184.388 C189.006,188.472 198.727,188.472 201.839,184.972 C204.951,181.472 203.784,176.028 203.784,176.028 C203.784,176.028 196.2,171.944 193.283,173.11" fill="#FBE1BA"/>
      <path d="M193.283,173.11 C193.283,173.11 191.533,174.277 190.95,174.666 C190.367,175.055 186.673,180.305 187.839,184.388 C189.006,188.472 198.727,188.472 201.839,184.972 C204.951,181.472 203.784,176.028 203.784,176.028 C203.784,176.028 196.2,171.944 193.283,173.11 z" fill-opacity="0" stroke="#7A5B33" stroke-width="1.701" stroke-linecap="round" stroke-linejoin="round"/>
      <g>
        <path d="M187.838,173.694 C187.838,173.694 191.234,177.576 189.199,182.055 C187.255,186.334 180.255,187.111 177.143,184.584 C175.51,183.257 175.004,176.028 175.004,176.028" fill="#FBE1BA"/>
        <path d="M187.838,173.694 C187.838,173.694 191.234,177.576 189.199,182.055 C187.255,186.334 180.255,187.111 177.143,184.584 C175.51,183.257 175.004,176.028 175.004,176.028" fill-opacity="0" stroke="#7A5B33" stroke-width="1.701" stroke-linecap="round" stroke-linejoin="round"/>
      </g>
      <g>
        <path d="M172.646,117.336 C172.646,117.336 166.539,121.191 166.927,135.775 C167.316,150.359 170.816,174.665 170.816,174.665 C170.816,174.665 181.316,179.723 189.678,171.166 C189.678,171.166 177.622,134.22 175.094,129.553" fill="#807068"/>
        <path d="M172.646,117.336 C172.646,117.336 166.539,121.191 166.927,135.775 C167.316,150.359 170.816,174.665 170.816,174.665 C170.816,174.665 181.316,179.723 189.678,171.166 C189.678,171.166 177.622,134.22 175.094,129.553" fill-opacity="0" stroke="#7A5B33" stroke-width="1.701" stroke-linecap="round" stroke-linejoin="round"/>
      </g>
      <g>
        <path d="M219.534,126.053 C219.534,126.053 213.311,129.165 210.784,131.887 C208.257,134.609 190.561,171.166 190.561,171.166 C190.561,171.166 196.395,179.139 210.201,176.805 C210.201,176.805 226.34,139.665 225.757,127.414" fill="#807068"/>
        <path d="M219.534,126.053 C219.534,126.053 213.311,129.165 210.784,131.887 C208.257,134.609 190.561,171.166 190.561,171.166 C190.561,171.166 196.395,179.139 210.201,176.805 C210.201,176.805 226.34,139.665 225.757,127.414" fill-opacity="0" stroke="#7A5B33" stroke-width="1.701" stroke-linecap="round" stroke-linejoin="round"/>
      </g>
      <path d="M283.319,91.845 C283.319,91.845 292.421,91.845 295.454,100.036 C298.489,108.228 303.645,147.062 301.522,150.095 C299.399,153.128 295.758,157.983 289.387,154.342 C283.016,150.701 275.734,106.71 283.319,91.845" fill="#7A5B33"/>
      <path d="M283.319,91.845 C283.319,91.845 292.421,91.845 295.454,100.036 C298.489,108.228 303.645,147.062 301.522,150.095 C299.399,153.128 295.758,157.983 289.387,154.342 C283.016,150.701 275.734,106.71 283.319,91.845 z" fill-opacity="0" stroke="#7A5B33" stroke-width="1.701" stroke-linecap="round" stroke-linejoin="round"/>
      <path d="M295.032,258.954 C284.592,263.157 276.928,261.412 273.419,260.083 C273.467,260.591 273.527,261.109 273.616,261.66 L274.794,263.649 C274.794,263.649 284.589,267.367 295.964,261.005 C295.964,261.005 303.784,258.796 306.245,258.189 C306.245,258.189 306.459,256.882 306.41,254.645 C301.991,255.5 295.032,258.954 295.032,258.954" fill="#5F5D5D"/>
      <path d="M295.032,258.954 C284.592,263.157 276.928,261.412 273.419,260.083 C273.467,260.591 273.527,261.109 273.616,261.66 L274.794,263.649 C274.794,263.649 284.589,267.367 295.964,261.005 C295.964,261.005 303.784,258.796 306.245,258.189 C306.245,258.189 306.459,256.882 306.41,254.645 C301.991,255.5 295.032,258.954 295.032,258.954 z" fill-opacity="0" stroke="#7A5B33" stroke-width="1.701" stroke-linecap="round" stroke-linejoin="round"/>
      <path d="M295.032,258.954 C295.032,258.954 301.991,255.5 306.41,254.645 C306.36,252.406 306.046,249.233 304.986,245.507 C293.79,251.753 288.815,249.933 288.815,249.933 C288.254,248.534 286.358,247.219 284.729,246.3 C284.651,246.347 284.572,246.395 284.491,246.436 C282.471,247.48 272.307,248.18 273.419,260.083 C276.928,261.412 284.592,263.157 295.032,258.954" fill="#5F5D5D"/>
      <path d="M295.032,258.954 C295.032,258.954 301.991,255.5 306.41,254.645 C306.36,252.406 306.046,249.233 304.986,245.507 C293.79,251.753 288.815,249.933 288.815,249.933 C288.254,248.534 286.358,247.219 284.729,246.3 C284.651,246.347 284.572,246.395 284.491,246.436 C282.471,247.48 272.307,248.18 273.419,260.083 C276.928,261.412 284.592,263.157 295.032,258.954 z" fill-opacity="0" stroke="#7A5B33" stroke-width="1.701" stroke-linecap="round" stroke-linejoin="round"/>
      <g>
        <path d="M277.875,249.492 C277.875,249.492 281.76,250.816 282.938,252.806 C282.938,252.806 285.454,252.474 289.198,249.27" fill="#5F5D5D"/>
        <path d="M277.875,249.492 C277.875,249.492 281.76,250.816 282.938,252.806 C282.938,252.806 285.454,252.474 289.198,249.27" fill-opacity="0" stroke="#7A5B33" stroke-width="1.701" stroke-linecap="round" stroke-linejoin="round"/>
      </g>
      <path d="M259.163,195.795 C259.163,195.795 267.796,214.143 272.591,222.257 C277.387,230.371 283.462,238.134 281.544,245.543 C281.544,245.543 285.263,247.572 289.217,250.483 C293.054,253.306 302.965,250.834 308.401,247.659 C308.401,247.659 301.913,218.935 297.438,210.467 C292.962,201.998 282.183,182.388 283.782,178.507 C285.38,174.625 271.632,162.982 271.632,162.982 C271.632,162.982 253.727,167.568 259.163,195.795" fill="#807068"/>
      <path d="M259.163,195.795 C259.163,195.795 267.796,214.143 272.591,222.257 C277.387,230.371 283.462,238.134 281.544,245.543 C281.544,245.543 285.263,247.572 289.217,250.483 C293.054,253.306 302.965,250.834 308.401,247.659 C308.401,247.659 301.913,218.935 297.438,210.467 C292.962,201.998 282.183,182.388 283.782,178.507 C285.38,174.625 271.632,162.982 271.632,162.982 C271.632,162.982 253.727,167.568 259.163,195.795 z" fill-opacity="0" stroke="#7A5B33" stroke-width="1.701" stroke-linecap="round" stroke-linejoin="round"/>
      <path d="M259.805,263.819 C248.787,265.413 241.651,261.869 238.489,259.729 C238.434,260.236 238.39,260.756 238.369,261.314 L239.125,263.541 C239.125,263.541 247.951,269.523 260.309,266.046 C260.309,266.046 268.377,265.767 270.901,265.767 C270.901,265.767 271.367,264.544 271.76,262.349 C267.279,262.121 259.805,263.819 259.805,263.819" fill="#5F5D5D"/>
      <path d="M259.805,263.819 C248.787,265.413 241.651,261.869 238.489,259.729 C238.434,260.236 238.39,260.756 238.369,261.314 L239.125,263.541 C239.125,263.541 247.951,269.523 260.309,266.046 C260.309,266.046 268.377,265.767 270.901,265.767 C270.901,265.767 271.367,264.544 271.76,262.349 C267.279,262.121 259.805,263.819 259.805,263.819 z" fill-opacity="0" stroke="#7A5B33" stroke-width="1.701" stroke-linecap="round" stroke-linejoin="round"/>
      <path d="M259.805,263.819 C259.805,263.819 267.279,262.121 271.76,262.349 C272.154,260.151 272.473,256.98 272.173,253.087 C260.013,256.493 256.621,252.638 256.621,252.638 C256.35,251.137 253.655,250.283 252.246,248.995 C252.159,249.02 252.075,249.049 251.987,249.07 C249.811,249.604 239.752,247.844 238.489,259.729 C241.651,261.869 248.787,265.413 259.805,263.819" fill="#5F5D5D"/>
      <path d="M259.805,263.819 C259.805,263.819 267.279,262.121 271.76,262.349 C272.154,260.151 272.473,256.98 272.173,253.087 C260.013,256.493 256.621,252.638 256.621,252.638 C256.35,251.137 253.655,250.283 252.246,248.995 C252.159,249.02 252.075,249.049 251.987,249.07 C249.811,249.604 239.752,247.844 238.489,259.729 C241.651,261.869 248.787,265.413 259.805,263.819 z" fill-opacity="0" stroke="#7A5B33" stroke-width="1.701" stroke-linecap="round" stroke-linejoin="round"/>
      <g>
        <path d="M244.925,250.461 C244.925,250.461 248.457,252.688 249.213,254.914 C249.213,254.914 251.735,255.192 256.022,252.966" fill="#5F5D5D"/>
        <path d="M244.925,250.461 C244.925,250.461 248.457,252.688 249.213,254.914 C249.213,254.914 251.735,255.192 256.022,252.966" fill-opacity="0" stroke="#7A5B33" stroke-width="1.701" stroke-linecap="round" stroke-linejoin="round"/>
      </g>
      <path d="M245.858,172.618 C245.858,172.618 244.899,204.372 246.817,214.603 C248.735,224.836 250.364,245.771 248.127,249.3 C248.127,249.3 254.935,254.959 276.038,253.548 C276.038,253.548 274.778,214.671 272.86,206.556 C270.941,198.44 273.814,173.465 273.814,173.465 C273.814,173.465 260.885,162.739 245.858,172.618" fill="#807068"/>
      <path d="M245.858,172.618 C245.858,172.618 244.899,204.372 246.817,214.603 C248.735,224.836 250.364,245.771 248.127,249.3 C248.127,249.3 254.935,254.959 276.038,253.548 C276.038,253.548 274.778,214.671 272.86,206.556 C270.941,198.44 273.814,173.465 273.814,173.465 C273.814,173.465 260.885,162.739 245.858,172.618 z" fill-opacity="0" stroke="#7A5B33" stroke-width="1.701" stroke-linecap="round" stroke-linejoin="round"/>
      <path d="M249.323,103.056 C249.323,103.056 244.423,133.207 239.978,179.61 C239.978,179.61 275.919,185.36 292.093,178.172 C292.093,178.172 293.989,148.562 291.841,139.991 C289.54,130.809 288.219,105.831 283.951,99.007 C283.951,99.007 281.316,93.487 278.542,90.53 C275.765,87.572 257.647,91.683 249.323,103.056" fill="#807068"/>
      <path d="M249.323,103.056 C249.323,103.056 244.423,133.207 239.978,179.61 C239.978,179.61 275.919,185.36 292.093,178.172 C292.093,178.172 293.989,148.562 291.841,139.991 C289.54,130.809 288.219,105.831 283.951,99.007 C283.951,99.007 281.316,93.487 278.542,90.53 C275.765,87.572 257.647,91.683 249.323,103.056 z" fill-opacity="0" stroke="#7A5B33" stroke-width="1.701" stroke-linecap="round" stroke-linejoin="round"/>
      <path d="M297.959,50.707 C293.696,28.717 273.949,27.595 273.949,27.595 C273.949,27.595 272.82,27.155 270.685,26.962 L261.751,21.554 L263.411,27.365 C262.652,27.503 261.849,27.683 261.016,27.893 L254.392,26.236 L255.548,29.702 C254.464,30.139 253.353,30.614 252.185,31.185 C242.535,35.898 245.228,47.342 245.228,47.342 L274.126,84.772 C281.98,83.428 302.223,72.697 297.959,50.707" fill="#81615A"/>
      <path d="M280.147,66.709 C279.122,62.096 275.551,62.98 273.935,63.646 C273.981,60.574 273.926,57.421 273.724,54.297 C273.724,54.297 267.889,52.277 264.299,42.628 C264.299,42.628 263.851,50.259 264.75,53.176 C264.75,53.176 260.038,44.423 261.159,39.263 C261.159,39.263 254.426,42.628 252.408,46.668 C252.408,46.668 252.182,41.956 256.221,38.141 C256.221,38.141 247.246,40.16 242.084,55.419 C242.084,55.419 237.374,54.297 239.168,62.6 C239.168,62.6 239.842,78.98 247.919,82.57 C251.772,84.282 257.793,84.59 257.793,84.59 L255.998,90.199 C255.998,90.199 268.516,90.576 274.126,89.454 C274.126,89.454 272.401,84.686 273.13,77.321 C278.338,76.673 281.381,72.266 280.147,66.709" fill="#FBE1BA"/>
      <path d="M280.147,66.709 C279.122,62.096 275.551,62.98 273.935,63.646 C273.981,60.574 273.926,57.421 273.724,54.297 C273.724,54.297 267.889,52.277 264.299,42.628 C264.299,42.628 263.851,50.259 264.75,53.176 C264.75,53.176 260.038,44.423 261.159,39.263 C261.159,39.263 254.426,42.628 252.408,46.668 C252.408,46.668 252.182,41.956 256.221,38.141 C256.221,38.141 247.246,40.16 242.084,55.419 C242.084,55.419 237.374,54.297 239.168,62.6 C239.168,62.6 239.842,78.98 247.919,82.57 C251.772,84.282 257.793,84.59 257.793,84.59 L255.998,90.199 C255.998,90.199 268.516,90.576 274.126,89.454 C274.126,89.454 272.401,84.686 273.13,77.321 C278.338,76.673 281.381,72.266 280.147,66.709 z" fill-opacity="0" stroke="#7A5B33" stroke-width="1.701" stroke-linecap="round" stroke-linejoin="round"/>
      <path d="M255.432,90.117 L249.682,102.336 C249.682,102.336 269.141,96.488 272.342,89.231 C272.342,89.231 265.678,88.836 255.432,90.117" fill="#FEFEFE"/>
      <path d="M255.432,90.117 L249.682,102.336 C249.682,102.336 269.141,96.488 272.342,89.231 C272.342,89.231 265.678,88.836 255.432,90.117 z" fill-opacity="0" stroke="#7A5B33" stroke-width="1.701" stroke-linecap="round" stroke-linejoin="round"/>
      <path d="M251.301,53.998 C250.948,55.885 251.105,57.499 251.653,57.602 C252.201,57.705 252.933,56.259 253.288,54.37 C253.643,52.482 253.485,50.869 252.938,50.766 C252.389,50.662 251.658,52.11 251.301,53.998" fill="#7A5B33"/>
      <path d="M273.905,83.42 L255.432,90.116 L261.671,95.208 C261.671,95.208 272.291,91.503 276.133,87.875 z" fill="#FEFEFE"/>
      <path d="M273.905,83.42 L255.432,90.116 L261.671,95.208 C261.671,95.208 272.291,91.503 276.133,87.875 L273.905,83.42 z" fill-opacity="0" stroke="#7A5B33" stroke-width="1.701" stroke-linecap="round" stroke-linejoin="round"/>
      <path d="M253.053,44.968 C253.053,44.968 257.737,41.623 260.077,47.31" fill-opacity="0" stroke="#7A5B33" stroke-width="1.701" stroke-linecap="round" stroke-linejoin="round"/>
      <path d="M246.03,70.389 C246.03,70.389 252.36,69.557 257.36,70.057 C257.36,70.057 258.86,77.557 254.86,79.057 C250.86,80.557 246.03,70.389 246.03,70.389" fill="#F6C1BB"/>
      <path d="M246.03,70.389 C246.03,70.389 252.36,69.557 257.36,70.057 C257.36,70.057 258.86,77.557 254.86,79.057 C250.86,80.557 246.03,70.389 246.03,70.389 z" fill-opacity="0" stroke="#7A5B33" stroke-width="1.701" stroke-linecap="round" stroke-linejoin="round"/>
      <path d="M275.178,85.784 C275.178,85.784 258.501,100.281 249.323,103.055 C249.323,103.055 258.896,104.099 263.591,101.965 L265.298,96.202 L271.276,97.269 C271.276,97.269 278.569,92.051 278.996,90.556 C278.996,90.556 277.953,87.278 275.178,85.784" fill="#807068"/>
      <path d="M275.178,85.784 C275.178,85.784 258.501,100.281 249.323,103.055 C249.323,103.055 258.896,104.099 263.591,101.965 L265.298,96.202 L271.276,97.269 C271.276,97.269 278.569,92.051 278.996,90.556 C278.996,90.556 277.953,87.278 275.178,85.784 z" fill-opacity="0" stroke="#7A5B33" stroke-width="1.701" stroke-linecap="round" stroke-linejoin="round"/>
      <path d="M297.881,131.284 C296.426,113.873 286.959,95.788 281.498,94.878 C274.826,93.765 267.831,101.094 268.15,110.958 C268.468,120.822 276.341,133.667 276.341,134.621 C276.341,134.621 278.465,144.33 288.173,145.24 C297.881,146.15 297.881,131.284 297.881,131.284" fill="#807068"/>
      <path d="M297.881,131.284 C296.426,113.873 286.959,95.788 281.498,94.878 C274.826,93.765 267.831,101.094 268.15,110.958 C268.468,120.822 276.341,133.667 276.341,134.621 C276.341,134.621 278.465,144.33 288.173,145.24 C297.881,146.15 297.881,131.284 297.881,131.284 z" fill-opacity="0" stroke="#7A5B33" stroke-width="1.701" stroke-linecap="round" stroke-linejoin="round"/>
      <path d="M282.409,91.541 C282.409,91.541 262.386,93.058 253.284,107.014 C244.182,120.97 241.452,146.453 293.028,151.308 L293.331,147.363 C293.331,147.363 251.767,147.363 251.767,122.789 C251.767,113.687 256.318,100.643 283.622,94.271 z" fill="#7A5B33"/>
      <path d="M282.409,91.541 C282.409,91.541 262.386,93.058 253.284,107.014 C244.182,120.97 241.452,146.453 293.028,151.308 L293.331,147.363 C293.331,147.363 251.767,147.363 251.767,122.789 C251.767,113.687 256.318,100.643 283.622,94.271 L282.409,91.541 z" fill-opacity="0" stroke="#7A5B33" stroke-width="1.701" stroke-linecap="round" stroke-linejoin="round"/>
      <path d="M265.116,119.15 L260.869,114.599 C260.869,114.599 261.475,107.015 257.835,104.891 L254.194,104.891 C254.194,104.891 251.161,100.948 246.003,103.375 C240.846,105.801 232.048,116.723 246.003,127.341 C246.003,127.341 249.341,129.768 253.284,128.252 C255.62,127.353 258.138,129.162 258.138,129.162 C258.138,129.162 266.026,127.038 265.116,119.15" fill="#FBE1BA"/>
      <path d="M265.116,119.15 L260.869,114.599 C260.869,114.599 261.475,107.015 257.835,104.891 L254.194,104.891 C254.194,104.891 251.161,100.948 246.003,103.375 C240.846,105.801 232.048,116.723 246.003,127.341 C246.003,127.341 249.341,129.768 253.284,128.252 C255.62,127.353 258.138,129.162 258.138,129.162 C258.138,129.162 266.026,127.038 265.116,119.15 z" fill-opacity="0" stroke="#7A5B33" stroke-width="1.701" stroke-linecap="round" stroke-linejoin="round"/>
      <g>
        <path d="M252.981,103.981 C252.981,103.981 255.408,106.712 255.408,108.835" fill="#FEFEFE"/>
        <path d="M252.981,103.981 C252.981,103.981 255.408,106.712 255.408,108.835" fill-opacity="0" stroke="#7A5B33" stroke-width="1.701" stroke-linecap="round" stroke-linejoin="round"/>
      </g>
      <g>
        <path d="M290.6,145.24 C290.6,145.24 262.385,147.667 247.216,129.465 C247.216,129.465 257.228,120.969 262.689,112.475 C262.689,112.475 270.88,121.272 274.825,120.667 C278.768,120.06 283.016,120.06 283.926,121.576" fill="#807068"/>
        <path d="M290.6,145.24 C290.6,145.24 262.385,147.667 247.216,129.465 C247.216,129.465 257.228,120.969 262.689,112.475 C262.689,112.475 270.88,121.272 274.825,120.667 C278.768,120.06 283.016,120.06 283.926,121.576" fill-opacity="0" stroke="#7A5B33" stroke-width="1.701" stroke-linecap="round" stroke-linejoin="round"/>
      </g>
      <path d="M258.125,61.02 L261.068,64.844 L262.832,61.902 L264.303,64.55 L267.833,63.079" fill-opacity="0" stroke="#F3A57C" stroke-width="1.701" stroke-linecap="round" stroke-linejoin="round"/>
    </g>
  </g>
</svg>
